# xmcd
#
# Track frame offsets: 
#        150
#        15359
#        31483
#        47719
#        66668
#        83090
#        105608
#        120381
#        137626
#        156757
#        170271
#
# Disc length: 2550 seconds
#
# Revision: 1
# Processed by: cddbd v1.5.2PL0 Copyright (c) Steve Scherf et al.
# Submitted via: ExactAudioCopyFreeDBPlugin 1.0
#
DISCID=8609f40b
DTITLE=Mark Gillespie - In Your Hands
DYEAR=2010
DGENRE=Blues
TTITLE0=All In Your Mind
TTITLE1=Days and Nights
TTITLE2=New Life
TTITLE3=In Your Hands
TTITLE4=So You Think Xou Know
TTITLE5=Just For Today
TTITLE6=You Might Get There
TTITLE7=Tonight
TTITLE8=How Long
TTITLE9=Psycho Blues
TTITLE10=Lonely
EXTD=YEAR: 2010
EXTT0=
EXTT1=
EXTT2=
EXTT3=
EXTT4=
EXTT5=
EXTT6=
EXTT7=
EXTT8=
EXTT9=
EXTT10=
PLAYORDER=
